# xmcd
#
# Track frame offsets: 
#        150
#        13952
#        24225
#        31945
#        40087
#        52007
#        64355
#        83085
#        97192
#        109727
#        120565
#        137307
#        151025
#        161897
#        173875
#        192670
#        206020
#        217832
#        230840
#        242415
#
# Disc length: 3474 seconds
#
# Revision: 6
# Processed by: cddbd v1.5.2PL0 Copyright (c) Steve Scherf et al.
# Submitted via: ExactAudioCopy v0.95b4
#
DISCID=100d9014
DTITLE=Cash, Johnny - The Man In Black CD2
DYEAR=2001
DGENRE=Country
TTITLE0=Don't Take Your Guns To Town
TTITLE1=Frankie's Man, Johnny
TTITLE2=I Got Stripes
TTITLE3=Five Feet High And Rising
TTITLE4=Ring Of Fire
TTITLE5=Understand Your Man
TTITLE6=The Ballad Of Ira Hayes
TTITLE7=Orange Blossom Special
TTITLE8=Jackson (With June Carter)
TTITLE9=Daddy Sang Bass
TTITLE10=A Boy Named Sue
TTITLE11=Wanted Man
TTITLE12=Blistered
TTITLE13=What Is Truth
TTITLE14=Sunday Mornin' Comin' Down
TTITLE15=If I Were A Carpenter (With June Carter)
TTITLE16=Flesh And Blood
TTITLE17=Man In Black
TTITLE18=A Thing Called Love
TTITLE19=One Piece At A Time
EXTD=YEAR: 2001
EXTT0=
EXTT1=
EXTT2=
EXTT3=
EXTT4=
EXTT5=
EXTT6=
EXTT7=
EXTT8=with June Carter\n
EXTT9=
EXTT10=
EXTT11=
EXTT12=
EXTT13=
EXTT14=
EXTT15=with June Carter
EXTT16=
EXTT17=
EXTT18=
EXTT19=
PLAYORDER=
